# xmcd
#
# Track frame offsets:
# 165
# 45826
# 78058
# 125048
# 163813
# 179356
# 232081
# 273281
#
# Disc length: 4163 seconds
#
# Revision: 0
# Processed by: cddbd v1.4b42PL1 Copyright (c) Steve Scherf et al.
# Submitted via: Audion 2.5.0 (http://www.panic.com/audion/)
#
DISCID=61104108
DTITLE=The Ray Anderson Quartet - Bonemeal
DYEAR=1900
DGENRE=
TTITLE0=Bonemeal
TTITLE1=Microwave Woman
TTITLE2=Kind of Garnerish
TTITLE3=Green Eyes, Fireflies
TTITLE4=Choppers
TTITLE5=Blues Bred in the Bone
TTITLE6=Snoo Tune
TTITLE7=Star Crossed Lovers
EXTD=
EXTT0=
EXTT1=
EXTT2=
EXTT3=
EXTT4=
EXTT5=
EXTT6=
EXTT7=
PLAYORDER=
